<svg xmlns="http://www.w3.org/2000/svg" data-name="Modo de aislamiento" width="207" height="34" style=""><rect id="backgroundrect" width="100%" height="100%" x="0" y="0" fill="none" stroke="none"/><defs><style>.cls-1{fill:#fff;}.cls-2{fill:#47ddd5;}</style></defs><title>TOMATUCARTA LOGO</title><g class="currentLayer" style=""><title>Layer 1</title><path class="cls-1" d="M11.779996185302736,33.07011810302734 c-2.42,1.23 -4.41,1.22 -5.24,0.07 c-1.1400000000000001,-1.55 0.19000000000000003,-4.48 3.08,-6.1 c2.38,-1.32 4,-1 4.78,-0.2 C15.999996185302734,28.520118103027343 14.719996185302733,31.580118103027345 11.779996185302736,33.07011810302734 z" id="svg_1"/><path class="cls-1" d="M50.28999618530274,20.020118103027343 a4.63,4.63 0 0 1 -0.6600000000000001,-0.29000000000000004 c-1.15,-0.47000000000000003 -1.9500000000000002,-0.8800000000000001 -2,-2 c-0.11000000000000001,-1.53 0.8900000000000001,-2.29 0.49000000000000005,-3.64 a12.84,12.84 0 0 0 -12.91,-7.59 a2.16,2.16 0 0 1 -0.6100000000000001,1.6700000000000002 a7.46,7.46 0 0 0 -2.27,2.89 c-0.8800000000000001,1.45 -3.71,1.23 -3.72,-2 a6.11,6.11 0 0 1 1,-4 a17.55,17.55 0 0 0 -12.28,-5.06 A17.37,17.37 0 0 0 -0.000003814697265625,15.480118103027337 c3.21,-3 7.94,-1.27 8.94,2.9 c0.19000000000000003,0.81 0.6700000000000002,2.5300000000000002 1.21,4.32 c1.71,-0.53 4.09,-0.7400000000000001 5.65,1.28 a7,7 0 0 1 -1.42,9.31 H24.889996185302735 c-3.88,-2.49 -5.84,-7.25 -6.22,-12.66 c-0.23,-3.38 1.19,-8 3.54,-7.49 c1.55,0.31000000000000005 1.4,2.1 1.87,5 c0.6800000000000002,4.19 3.94,6.75 6.26,7.11 c3.07,0.48000000000000004 4.3,0.09000000000000002 7.19,0.6100000000000001 a5.35,5.35 0 0 1 4.57,5.640000000000001 a19.19,19.19 0 0 0 7,-3.14 a8,8 0 0 0 3.26,-4.22 A3.6,3.6 0 0 0 50.28999618530274,20.020118103027343 zm-5.78,0 C41.999996185302734,21.81011810302735 42.639996185302735,23.410118103027344 40.889996185302735,24.09011810302735 c-3.83,1.59 -6,-2.48 -5,-5.57 a5.39,5.39 0 0 1 4.59,-3.8 a4.63,4.63 0 0 1 4.76,2.52 A2.13,2.13 0 0 1 44.50999618530273,20.03011810302735 zm5.88,4.49 c-0.81,1 -3.2,-1.06 -2.41,-2.15 A3.21,3.21 0 0 1 50.169996185302736,21.410118103027344 C51.749996185302734,21.410118103027344 51.37999618530273,23.270118103027343 50.389996185302735,24.520118103027343 z" id="svg_2"/><path class="cls-2" d="M67.53999618530274,16.550118103027344 a3.2800000000000002,3.2800000000000002 0 0 1 0.12000000000000001,0.91 a1.77,1.77 0 0 1 -0.38000000000000006,1.27 a1.37,1.37 0 0 1 -1,0.39000000000000007 H63.639996185302735 v10.74 a6.85,6.85 0 0 1 -0.78,0.13 a7.88,7.88 0 0 1 -1.09,0.07 a2.58,2.58 0 0 1 -1.6900000000000002,-0.41000000000000003 a1.9300000000000002,1.9300000000000002 0 0 1 -0.48000000000000004,-1.5 v-9 H56.11999618530274 a2.49,2.49 0 0 1 -0.29000000000000004,-0.6700000000000002 a2.92,2.92 0 0 1 -0.13,-0.9 a1.78,1.78 0 0 1 0.38000000000000006,-1.27 a1.3900000000000001,1.3900000000000001 0 0 1 1,-0.4 H67.24999618530273 A3.6100000000000003,3.6100000000000003 0 0 1 67.53999618530274,16.550118103027344 z" id="svg_3"/><path class="cls-2" d="M79.54999618530273,24.270118103027343 a7,7 0 0 1 -0.42000000000000004,2.49 A5.24,5.24 0 0 1 75.99999618530273,29.830118103027345 a7,7 0 0 1 -2.5,0.42000000000000004 a7.22,7.22 0 0 1 -2.49,-0.41000000000000003 a5.12,5.12 0 0 1 -3.13,-3.06 a7,7 0 0 1 -0.43000000000000005,-2.51 a6.71,6.71 0 0 1 0.44000000000000006,-2.47 a5.5,5.5 0 0 1 1.24,-1.8900000000000001 A5.36,5.36 0 0 1 70.99999618530273,18.730118103027337 a7,7 0 0 1 2.47,-0.42000000000000004 a6.76,6.76 0 0 1 2.48,0.43000000000000005 a5.49,5.49 0 0 1 1.9,1.2 a5.36,5.36 0 0 1 1.24,1.8800000000000001 A6.640000000000001,6.640000000000001 0 0 1 79.54999618530273,24.270118103027343 zM73.49999618530273,21.410118103027344 a1.7400000000000002,1.7400000000000002 0 0 0 -1.5,0.7500000000000001 A4.67,4.67 0 0 0 71.99999618530273,26.410118103027344 a1.9100000000000001,1.9100000000000001 0 0 0 3,0 a3.73,3.73 0 0 0 0.53,-2.17 A3.6900000000000004,3.6900000000000004 0 0 0 74.99999618530273,22.130118103027343 A1.75,1.75 0 0 0 73.49999618530273,21.410118103027344 z" id="svg_4"/><path class="cls-2" d="M98.60999618530273,29.860118103027347 a7.33,7.33 0 0 1 -0.7300000000000001,0.13 a6.67,6.67 0 0 1 -1,0.07 a2.77,2.77 0 0 1 -1.6600000000000001,-0.38000000000000006 a1.73,1.73 0 0 1 -0.51,-1.46 V22.70011810302735 a1.25,1.25 0 0 0 -0.37000000000000005,-1 a1.45,1.45 0 0 0 -1,-0.31000000000000005 a2.12,2.12 0 0 0 -0.7500000000000001,0.14 a2.68,2.68 0 0 0 -0.6100000000000001,0.32000000000000006 a1.09,1.09 0 0 0 0,0.18000000000000002 a0.7600000000000001,0.7600000000000001 0 0 1 0,0.15000000000000002 v7.69 a6.82,6.82 0 0 1 -0.7300000000000001,0.13 a6.45,6.45 0 0 1 -1,0.07 a2.8,2.8 0 0 1 -1.6700000000000002,-0.38000000000000006 a1.75,1.75 0 0 1 -0.5,-1.46 V22.70011810302735 a1.21,1.21 0 0 0 -0.41000000000000003,-1 a1.55,1.55 0 0 0 -1,-0.31000000000000005 a2,2 0 0 0 -0.7600000000000001,0.13 a3.4,3.4 0 0 0 -0.53,0.24000000000000002 v8.11 a7.33,7.33 0 0 1 -0.7300000000000001,0.13 a6.67,6.67 0 0 1 -1,0.07 a2.77,2.77 0 0 1 -1.6600000000000001,-0.38000000000000006 a1.73,1.73 0 0 1 -0.51,-1.46 v-7 a1.7600000000000002,1.7600000000000002 0 0 1 0.27,-1 a2.89,2.89 0 0 1 0.7200000000000001,-0.7200000000000001 a6.7,6.7 0 0 1 1.94,-0.8900000000000001 a8.9,8.9 0 0 1 2.45,-0.33000000000000007 a6.33,6.33 0 0 1 1.81,0.25 a5.46,5.46 0 0 1 1.6300000000000001,0.79 a7.5,7.5 0 0 1 1.56,-0.7400000000000001 a6.41,6.41 0 0 1 2.09,-0.30000000000000004 a6.6,6.6 0 0 1 1.7200000000000002,0.23 a4.37,4.37 0 0 1 1.5,0.7300000000000001 a3.51,3.51 0 0 1 1,1.31 a4.52,4.52 0 0 1 0.4,2 z" id="svg_5"/><path class="cls-2" d="M105.64999618530274,18.31011810302735 a9.39,9.39 0 0 1 2.27,0.25 a5.07,5.07 0 0 1 1.7600000000000002,0.78 a3.46,3.46 0 0 1 1.12,1.31 a4.25,4.25 0 0 1 0.39000000000000007,1.8900000000000001 V27.71011810302734 a1.4300000000000002,1.4300000000000002 0 0 1 -0.33000000000000007,1 a3.71,3.71 0 0 1 -0.8,0.6600000000000001 a8.26,8.26 0 0 1 -4.23,0.9 a9.84,9.84 0 0 1 -2.2,-0.23 a5.3100000000000005,5.3100000000000005 0 0 1 -1.6900000000000002,-0.7000000000000001 a3.1,3.1 0 0 1 -1.08,-1.17 a3.43,3.43 0 0 1 -0.38000000000000006,-1.6700000000000002 a3.11,3.11 0 0 1 0.9400000000000001,-2.44 a5.12,5.12 0 0 1 2.94,-1.07 l3,-0.32000000000000006 v-0.16000000000000003 a1,1 0 0 0 -0.5900000000000001,-1 a4,4 0 0 0 -1.7000000000000002,-0.29000000000000004 a7.42,7.42 0 0 0 -1.6900000000000002,0.19000000000000003 a8.51,8.51 0 0 0 -1.52,0.46 a1.59,1.59 0 0 1 -0.5,-0.6400000000000001 a2,2 0 0 1 -0.21000000000000002,-0.8900000000000001 a1.42,1.42 0 0 1 0.29000000000000004,-1 a2.23,2.23 0 0 1 0.8900000000000001,-0.6200000000000001 a7,7 0 0 1 1.58,-0.36000000000000004 A13.22,13.22 0 0 1 105.64999618530274,18.31011810302735 zm0.18000000000000002,9.07 a4.61,4.61 0 0 0 0.8700000000000001,-0.08000000000000002 a1.8,1.8 0 0 0 0.7000000000000001,-0.22000000000000003 V25.240118103027342 l-1.6600000000000001,0.14 a2.6100000000000003,2.6100000000000003 0 0 0 -1.06,0.27 a0.7600000000000001,0.7600000000000001 0 0 0 -0.42000000000000004,0.7000000000000001 a0.9400000000000001,0.9400000000000001 0 0 0 0.36000000000000004,0.7500000000000001 A2,2 0 0 0 105.82999618530273,27.410118103027344 z" id="svg_6"/><path class="cls-1" d="M119.36999618530274,17.410118103027344 v12.4 l-0.36000000000000004,0.11000000000000001 a2.73,2.73 0 0 1 -0.5,0 c-0.6800000000000002,0 -1,-0.28 -1,-0.8500000000000001 V17.410118103027344 h-4.32 a1.13,1.13 0 0 1 -0.14,-0.31000000000000005 a1.25,1.25 0 0 1 -0.07,-0.45 a0.92,0.92 0 0 1 0.18000000000000002,-0.6100000000000001 a0.6500000000000001,0.6500000000000001 0 0 1 0.53,-0.22000000000000003 h10 a1.29,1.29 0 0 1 0.14,0.31000000000000005 a1.18,1.18 0 0 1 0.07,0.43000000000000005 a1,1 0 0 1 -0.18000000000000002,0.6200000000000001 a0.6300000000000001,0.6300000000000001 0 0 1 -0.53,0.23 z" id="svg_7"/><path class="cls-1" d="M137.06999618530273,27.15011810302734 A4.29,4.29 0 0 1 135.99999618530273,28.770118103027343 a4.86,4.86 0 0 1 -1.7200000000000002,1 a7.52,7.52 0 0 1 -4.66,0 a4.73,4.73 0 0 1 -1.71,-1 a4.37,4.37 0 0 1 -1,-1.62 a5.93,5.93 0 0 1 -0.36000000000000004,-2.12 V15.880118103027343 l0.36000000000000004,-0.1 a2.12,2.12 0 0 1 0.52,-0.06000000000000001 c0.6600000000000001,0 1,0.29000000000000004 1,0.8600000000000001 v8.29 a4.21,4.21 0 0 0 0.28,1.61 a3.19,3.19 0 0 0 0.7500000000000001,1.17 a2.8,2.8 0 0 0 1.13,0.7000000000000001 a4.32,4.32 0 0 0 2.84,0 a2.8,2.8 0 0 0 1.13,-0.7000000000000001 a3.19,3.19 0 0 0 0.7500000000000001,-1.17 a4.21,4.21 0 0 0 0.28,-1.61 v-9 l0.36000000000000004,-0.1 a2.12,2.12 0 0 1 0.52,-0.06000000000000001 c0.6800000000000002,0 1,0.29000000000000004 1,0.8600000000000001 v8.45 A6.16,6.16 0 0 1 137.06999618530273,27.15011810302734 z" id="svg_8"/><path class="cls-2" d="M151.99999618530273,17.92011810302735 a1.82,1.82 0 0 1 -0.30000000000000004,1 a2.51,2.51 0 0 1 -0.6900000000000002,0.6900000000000002 a7.16,7.16 0 0 0 -1.29,-0.6700000000000002 a4.05,4.05 0 0 0 -1.58,-0.28 a3.4,3.4 0 0 0 -2.72,1.1 a4.58,4.58 0 0 0 -1,3.08 a4.26,4.26 0 0 0 1,3.11 a3.79,3.79 0 0 0 2.85,1 a4.39,4.39 0 0 0 1.6,-0.26 a10.29,10.29 0 0 0 1.26,-0.5700000000000001 a2.2,2.2 0 0 1 0.6200000000000001,0.77 a2.46,2.46 0 0 1 0.21000000000000002,1.05 a1.79,1.79 0 0 1 -0.27,1 a2.12,2.12 0 0 1 -0.9500000000000001,0.7400000000000001 a7.29,7.29 0 0 1 -1.18,0.37000000000000005 a8.06,8.06 0 0 1 -1.84,0.18000000000000002 a9.63,9.63 0 0 1 -2.94,-0.43000000000000005 a6.71,6.71 0 0 1 -2.38,-1.34 a6.3100000000000005,6.3100000000000005 0 0 1 -1.59,-2.3 a8.8,8.8 0 0 1 -0.5800000000000001,-3.34 a8.28,8.28 0 0 1 0.5700000000000001,-3.18 A6.65,6.65 0 0 1 142.37999618530273,17.410118103027344 a6.47,6.47 0 0 1 2.29,-1.4300000000000002 a8.19,8.19 0 0 1 2.8200000000000003,-0.48000000000000004 a6.5,6.5 0 0 1 3.29,0.6900000000000002 A2,2 0 0 1 151.99999618530273,17.92011810302735 z" id="svg_9"/><path class="cls-2" d="M162.28999618530273,26.970118103027346 h-4.18 c-0.15000000000000002,0.55 -0.28,1.07 -0.4,1.55 s-0.23,0.92 -0.33000000000000007,1.34 a7,7 0 0 1 -0.6900000000000002,0.19000000000000003 a3.54,3.54 0 0 1 -0.8600000000000001,0.08000000000000002 a3,3 0 0 1 -1.75,-0.4 a1.31,1.31 0 0 1 -0.56,-1.12 a2.43,2.43 0 0 1 0.09000000000000002,-0.6500000000000001 l0.21000000000000002,-0.7600000000000001 q0.17,-0.6300000000000001 0.45,-1.56 t0.6300000000000001,-2 c0.24000000000000002,-0.7100000000000001 0.48000000000000004,-1.44 0.7400000000000001,-2.19 s0.51,-1.46 0.7400000000000001,-2.13 s0.44000000000000006,-1.27 0.6400000000000001,-1.8 s0.3400000000000001,-0.93 0.45,-1.21 a5.12,5.12 0 0 1 1.19,-0.44000000000000006 a6.22,6.22 0 0 1 1.6,-0.21000000000000002 a5.91,5.91 0 0 1 2.05,0.3400000000000001 a1.77,1.77 0 0 1 1.1400000000000001,1.07 c0.28,0.79 0.5800000000000001,1.71 0.9,2.77 s0.6500000000000001,2.16 1,3.29 s0.6400000000000001,2.25 1,3.35 l0.8,2.92 a1.83,1.83 0 0 1 -0.8300000000000001,0.52 a4,4 0 0 1 -1.31,0.2 a2.45,2.45 0 0 1 -1.57,-0.37000000000000005 a2.19,2.19 0 0 1 -0.6500000000000001,-1.18 zm-2,-7.69 q-0.33000000000000007,0.9400000000000001 -0.7200000000000001,2.1 c-0.26,0.77 -0.51,1.59 -0.7600000000000001,2.47 h2.8600000000000003 c-0.21000000000000002,-0.8800000000000001 -0.43000000000000005,-1.7000000000000002 -0.6500000000000001,-2.48 s-0.42000000000000004,-1.47 -0.5900000000000001,-2.09 z" id="svg_10"/><path class="cls-2" d="M180.41999618530272,20.46011810302734 a4.17,4.17 0 0 1 -0.6800000000000002,2.34 a5.47,5.47 0 0 1 -1.81,1.7000000000000002 c0.29000000000000004,0.4 0.5900000000000001,0.78 0.8900000000000001,1.15 s0.5800000000000001,0.7300000000000001 0.8400000000000001,1.07 s0.5,0.6500000000000001 0.7000000000000001,0.9400000000000001 s0.38000000000000006,0.56 0.52,0.79 a2.11,2.11 0 0 1 -0.8400000000000001,1.23 a2.3200000000000003,2.3200000000000003 0 0 1 -1.37,0.43000000000000005 a2.88,2.88 0 0 1 -0.8800000000000001,-0.12000000000000001 a2,2 0 0 1 -0.6500000000000001,-0.32000000000000006 a3.07,3.07 0 0 1 -0.51,-0.51 a6,6 0 0 1 -0.43000000000000005,-0.6400000000000001 l-2,-3.17 H172.99999618530273 v4.51 a6.72,6.72 0 0 1 -0.79,0.13 a7.640000000000001,7.640000000000001 0 0 1 -1.08,0.07 a2.6100000000000003,2.6100000000000003 0 0 1 -1.7000000000000002,-0.41000000000000003 a2,2 0 0 1 -0.47000000000000003,-1.5 V17.20011810302735 a1.05,1.05 0 0 1 0.26,-0.7500000000000001 a1.9100000000000001,1.9100000000000001 0 0 1 0.7300000000000001,-0.43000000000000005 a8.620000000000001,8.620000000000001 0 0 1 1.82,-0.4 a17.45,17.45 0 0 1 2.22,-0.13 a7.36,7.36 0 0 1 4.8100000000000005,1.35 A4.5,4.5 0 0 1 180.41999618530272,20.46011810302734 zm-6.3,1.82 a2.6500000000000004,2.6500000000000004 0 0 0 1.59,-0.45 a1.52,1.52 0 0 0 0.6200000000000001,-1.33 a1.57,1.57 0 0 0 -0.56,-1.32 a2.89,2.89 0 0 0 -1.79,-0.45 a4.27,4.27 0 0 0 -0.52,0 a4.61,4.61 0 0 0 -0.5,0.07 v3.46 z" id="svg_11"/><path class="cls-2" d="M193.42999618530274,16.550118103027344 a2.94,2.94 0 0 1 0.13,0.91 a1.82,1.82 0 0 1 -0.38000000000000006,1.27 a1.37,1.37 0 0 1 -1,0.39000000000000007 h-2.6100000000000003 v10.74 a6.85,6.85 0 0 1 -0.78,0.13 a7.88,7.88 0 0 1 -1.09,0.07 a2.58,2.58 0 0 1 -1.6900000000000002,-0.41000000000000003 a1.9300000000000002,1.9300000000000002 0 0 1 -0.48000000000000004,-1.5 v-9 H181.99999618530273 a2.87,2.87 0 0 1 -0.28,-0.6700000000000002 a2.92,2.92 0 0 1 -0.13,-0.9 a1.78,1.78 0 0 1 0.38000000000000006,-1.27 a1.3800000000000001,1.3800000000000001 0 0 1 1,-0.4 h10.14 A3.07,3.07 0 0 1 193.42999618530274,16.550118103027344 z" id="svg_12"/><path class="cls-2" d="M202.40999618530273,26.970118103027346 h-4.18 c-0.16000000000000003,0.55 -0.29000000000000004,1.07 -0.41000000000000003,1.55 s-0.23,0.92 -0.33000000000000007,1.34 c-0.22000000000000003,0.07 -0.45,0.14 -0.6800000000000002,0.19000000000000003 a3.68,3.68 0 0 1 -0.8700000000000001,0.08000000000000002 a3,3 0 0 1 -1.7400000000000002,-0.4 a1.29,1.29 0 0 1 -0.5700000000000001,-1.12 a2.43,2.43 0 0 1 0.09000000000000002,-0.6500000000000001 l0.21000000000000002,-0.7600000000000001 q0.16000000000000003,-0.6300000000000001 0.45,-1.56 c0.19000000000000003,-0.6200000000000001 0.41000000000000003,-1.29 0.6400000000000001,-2 s0.47000000000000003,-1.44 0.7400000000000001,-2.19 l0.7300000000000001,-2.13 l0.6400000000000001,-1.8 c0.19000000000000003,-0.53 0.3400000000000001,-0.93 0.45,-1.21 a5.12,5.12 0 0 1 1.19,-0.44000000000000006 a6.22,6.22 0 0 1 1.6,-0.21000000000000002 a5.91,5.91 0 0 1 2,0.3400000000000001 a1.77,1.77 0 0 1 1.1400000000000001,1.07 c0.28,0.79 0.5800000000000001,1.71 0.9,2.77 s0.6500000000000001,2.16 1,3.29 s0.6400000000000001,2.25 0.9500000000000001,3.35 s0.5800000000000001,2.08 0.81,2.92 a1.92,1.92 0 0 1 -0.8400000000000001,0.52 a3.88,3.88 0 0 1 -1.31,0.2 a2.45,2.45 0 0 1 -1.57,-0.37000000000000005 a2.26,2.26 0 0 1 -0.6500000000000001,-1.18 zm-2.06,-7.69 c-0.22000000000000003,0.6300000000000001 -0.45,1.33 -0.7200000000000001,2.1 s-0.51,1.59 -0.7600000000000001,2.47 h2.87 c-0.22000000000000003,-0.8800000000000001 -0.44000000000000006,-1.7000000000000002 -0.6600000000000001,-2.48 s-0.42000000000000004,-1.47 -0.5900000000000001,-2.09 z" id="svg_13"/></g></svg>