<svg id="Modo_de_aislamiento" data-name="Modo de aislamiento" xmlns="http://www.w3.org/2000/svg" viewBox="0 0 236.99 173.99"><defs><style>.cls-1{fill:#fff;}.cls-2{fill:#47ddd5;}</style></defs><title>guanmor logo</title><path class="cls-1" d="M35.36,106a7.77,7.77,0,0,0-6.27,2.55,10.59,10.59,0,0,0-2.17,7.08,14.06,14.06,0,0,0,.52,3.93A8.67,8.67,0,0,0,29,122.64a7,7,0,0,0,2.53,2,8.29,8.29,0,0,0,3.55.71,21.32,21.32,0,0,0,2.19-.1A8.85,8.85,0,0,0,38.7,125v-9.55h4.83V128.2a22.37,22.37,0,0,1-3.38.84,29.15,29.15,0,0,1-5.49.46,14.44,14.44,0,0,1-5.26-.92,10.89,10.89,0,0,1-4-2.69,12.22,12.22,0,0,1-2.59-4.34,17.48,17.48,0,0,1-.92-5.91,16,16,0,0,1,1-5.91,12.8,12.8,0,0,1,2.78-4.35,11.68,11.68,0,0,1,4.14-2.71,13.92,13.92,0,0,1,5.06-.92,19.37,19.37,0,0,1,3.28.25,22.23,22.23,0,0,1,2.47.56,10.11,10.11,0,0,1,1.71.65l.94.5-1.46,4a11.78,11.78,0,0,0-2.86-1.17A13.23,13.23,0,0,0,35.36,106Z"/><path class="cls-1" d="M59.38,129.55a12.54,12.54,0,0,1-4.68-.79,8.63,8.63,0,0,1-3.24-2.21,9,9,0,0,1-1.9-3.34,13.76,13.76,0,0,1-.61-4.22V102.38h4.87v16.15a10.41,10.41,0,0,0,.4,3.09,5.38,5.38,0,0,0,1.15,2.09,4.58,4.58,0,0,0,1.76,1.19,6.43,6.43,0,0,0,2.28.38,6.58,6.58,0,0,0,2.3-.38,4.56,4.56,0,0,0,1.78-1.19,5.38,5.38,0,0,0,1.15-2.09,10.41,10.41,0,0,0,.4-3.09V102.38h4.87V119a13.41,13.41,0,0,1-.63,4.22,9.21,9.21,0,0,1-1.92,3.34,8.59,8.59,0,0,1-3.28,2.21A12.84,12.84,0,0,1,59.38,129.55Z"/><path class="cls-1" d="M93.46,129q-.54-1.57-1.12-3.11t-1.12-3.15H80q-.54,1.61-1.1,3.17T77.8,129h-5q1.49-4.26,2.84-7.87t2.63-6.83q1.28-3.22,2.55-6.14t2.61-5.76H88q1.34,2.84,2.61,5.76t2.55,6.14q1.29,3.22,2.65,6.83T98.68,129Zm-7.85-21.45q-.88,2-2,5t-2.36,6.33H90q-1.23-3.42-2.38-6.37T85.61,107.52Z"/><path class="cls-1" d="M119.93,129q-1.31-2.19-2.92-4.7t-3.34-5.07q-1.73-2.55-3.51-5t-3.4-4.32v19H102V102.38h4q1.54,1.61,3.3,3.82t3.55,4.58q1.78,2.38,3.45,4.78t3,4.47V102.38H124V129Z"/><path class="cls-1" d="M136.22,102.38q.84,1.46,1.88,3.57t2.11,4.43q1.07,2.32,2.13,4.72l1.94,4.43,1.92-4.43q1-2.4,2.11-4.72t2.11-4.43q1-2.11,1.88-3.57h4.36q.35,2.92.67,6.2t.57,6.71q.25,3.44.47,6.91t.37,6.77H154q-.16-4.64-.37-9.55T153,109.9L152,112q-.58,1.23-1.23,2.67t-1.32,3l-1.3,3-1.17,2.69-.92,2.13H142.4l-.92-2.15q-.54-1.27-1.17-2.71l-1.3-3q-.67-1.53-1.32-3L136.45,112q-.58-1.25-1-2.09-.43,4.61-.65,9.52t-.37,9.55h-4.76q.16-3.3.37-6.83t.47-7q.25-3.47.57-6.73t.67-6Z"/><path class="cls-2" d="M189,115.66a16.53,16.53,0,0,1-1,6,12.45,12.45,0,0,1-2.76,4.35,11.38,11.38,0,0,1-4.09,2.63,14,14,0,0,1-5,.88,14.19,14.19,0,0,1-5-.88,11.34,11.34,0,0,1-4.11-2.63,12.68,12.68,0,0,1-2.78-4.35,18,18,0,0,1,0-12,12.64,12.64,0,0,1,2.82-4.36,11.66,11.66,0,0,1,4.13-2.65,14.32,14.32,0,0,1,9.9,0,11.3,11.3,0,0,1,4.09,2.65,13,13,0,0,1,2.78,4.36A16.1,16.1,0,0,1,189,115.66Z"/><path class="cls-1" d="M201.66,102.11q5.76,0,8.81,2.11a7.3,7.3,0,0,1,3.05,6.45q0,5.41-5.33,7.33.73.88,1.65,2.15t1.88,2.74q1,1.48,1.84,3t1.57,3.05h-5.41q-.73-1.38-1.57-2.78t-1.71-2.72q-.86-1.32-1.71-2.49t-1.57-2.09c-.36,0-.67,0-.92,0h-3.07V129h-4.83V102.76a26.06,26.06,0,0,1,3.76-.52Q200.09,102.11,201.66,102.11Zm.35,4.18q-1.54,0-2.84.12V115h2.11a22.23,22.23,0,0,0,3.11-.19,6.55,6.55,0,0,0,2.25-.69,3.36,3.36,0,0,0,1.36-1.34,4.46,4.46,0,0,0,.46-2.15,4.29,4.29,0,0,0-.46-2.07,3.43,3.43,0,0,0-1.32-1.34,6.27,6.27,0,0,0-2.05-.71A15,15,0,0,0,202,106.29Z"/><path class="cls-1" d="M71.58,150.54q-.17-.42-.48-1.11t-.7-1.5l-.79-1.68q-.4-.86-.78-1.62l-.66-1.33q-.29-.57-.42-.81-.22,2.1-.34,4.56t-.23,5.16H66.06q.15-3.17.34-6.08t.48-5.56h1q.51.84,1.08,1.94t1.13,2.28q.56,1.18,1.09,2.33t.93,2.07q.4-.92.93-2.07t1.09-2.33q.56-1.18,1.14-2.28t1.08-1.94h1q.29,2.65.48,5.56t.34,6.08H77q-.1-2.7-.23-5.16t-.34-4.56q-.13.24-.42.81l-.65,1.33q-.37.76-.77,1.62l-.79,1.68q-.39.81-.7,1.5t-.48,1.11Z"/><path class="cls-1" d="M84.22,152.22V140.59h6.71v1H85.36v4h5v1h-5v4.63h6v1Z"/><path class="cls-1" d="M104.82,152.22q-.32-.58-.81-1.38t-1.09-1.68l-1.25-1.84q-.65-1-1.29-1.85t-1.26-1.69Q98.5,143,98,142.42v9.8H96.9V140.59h.91q.86,1,1.84,2.21t1.92,2.55q.94,1.3,1.76,2.54t1.34,2.16v-9.47h1.12v11.63Z"/><path class="cls-1" d="M116.35,152.47a5,5,0,0,1-2-.35,3.39,3.39,0,0,1-1.32-1,3.91,3.91,0,0,1-.73-1.45,6.76,6.76,0,0,1-.23-1.79v-7.32h1.14v7.17a5.36,5.36,0,0,0,.23,1.65,3.18,3.18,0,0,0,.63,1.15,2.46,2.46,0,0,0,1,.67,3.85,3.85,0,0,0,2.55,0,2.45,2.45,0,0,0,1-.67,3.2,3.2,0,0,0,.63-1.15,5.36,5.36,0,0,0,.23-1.65v-7.17h1.14v7.32a6.8,6.8,0,0,1-.23,1.79,3.91,3.91,0,0,1-.73,1.45,3.41,3.41,0,0,1-1.32,1A5,5,0,0,1,116.35,152.47Z"/><path class="cls-1" d="M129.71,152.32l-.66,0-.77-.07-.75-.1-.6-.12V140.8a6.19,6.19,0,0,1,.67-.14l.76-.1.77-.06.7,0a10.2,10.2,0,0,1,1.79.15,4.8,4.8,0,0,1,1.49.5,2.81,2.81,0,0,1,1,.93,2.57,2.57,0,0,1,.38,1.43,2.66,2.66,0,0,1-.48,1.6,2.43,2.43,0,0,1-1.28.91,4,4,0,0,1,.92.34,2.69,2.69,0,0,1,.74.56,2.42,2.42,0,0,1,.5.84,3.55,3.55,0,0,1,.18,1.18,2.83,2.83,0,0,1-1.31,2.51A7.46,7.46,0,0,1,129.71,152.32Zm-1.65-6.66h2.22a7.17,7.17,0,0,0,1.18-.09,2.78,2.78,0,0,0,1-.33,1.77,1.77,0,0,0,.65-.65,2.09,2.09,0,0,0,.23-1,1.75,1.75,0,0,0-.25-1,1.91,1.91,0,0,0-.71-.64,3.54,3.54,0,0,0-1.1-.36,8.45,8.45,0,0,0-1.41-.11q-.62,0-1,0c-.29,0-.52,0-.71.08Zm0,1v4.6l.76.08q.5,0,1,0a11,11,0,0,0,1.5-.1,4.26,4.26,0,0,0,1.28-.37,2.31,2.31,0,0,0,.89-.74,2,2,0,0,0,.34-1.21,2.39,2.39,0,0,0-.24-1.12,1.78,1.78,0,0,0-.67-.71,3,3,0,0,0-1.07-.36,8.89,8.89,0,0,0-1.4-.1Z"/><path class="cls-1" d="M148.7,152.22q-.33-.86-.61-1.65t-.54-1.54h-5.68q-.29.75-.57,1.54t-.59,1.64h-1.19q.66-1.82,1.25-3.39t1.16-3q.57-1.4,1.13-2.69t1.17-2.59h1q.62,1.29,1.17,2.59t1.12,2.69q.57,1.4,1.15,3t1.29,3.39Zm-4-10.32q-.63,1.45-1.23,2.94t-1.24,3.22h5q-.64-1.73-1.25-3.22T144.7,141.9Z"/><path class="cls-1" d="M162.73,144.08a3,3,0,0,1-.69,2.06,3.9,3.9,0,0,1-1.81,1.09l.7.91q.43.57.88,1.25t.89,1.42a14.36,14.36,0,0,1,.74,1.41h-1.22q-.35-.67-.76-1.34t-.84-1.3q-.43-.63-.83-1.17l-.71-.94c-.36,0-.72.05-1.07.05h-1.88v4.7H155V140.8a8.15,8.15,0,0,1,1.42-.24q.81-.08,1.5-.08a6,6,0,0,1,3.62.91A3.14,3.14,0,0,1,162.73,144.08Zm-4.7-2.6q-.64,0-1.12,0l-.8.08v5h1.58a14.18,14.18,0,0,0,1.49-.08,3.57,3.57,0,0,0,1.23-.34,2,2,0,0,0,.82-.75,2.5,2.5,0,0,0,.3-1.33,2.45,2.45,0,0,0-.3-1.28,2.3,2.3,0,0,0-.79-.8,3.21,3.21,0,0,0-1.12-.4A7.66,7.66,0,0,0,158,141.48Z"/><path class="cls-1" d="M84.63,92.4C79.45,95,75.19,95,73.4,92.54c-2.43-3.33.41-9.6,6.62-13.06,5.09-2.84,8.58-2.2,10.23-.44C93.61,82.63,90.94,89.2,84.63,92.4Z"/><path class="cls-1" d="M167.15,64.42a9,9,0,0,1-1.42-.61c-2.48-1-4.17-1.89-4.34-4.24-.23-3.27,1.91-4.92,1.05-7.8A27.52,27.52,0,0,0,134.79,35.5a4.66,4.66,0,0,1-1.3,3.6c-3.82,3.62-2.65,2.48-4.87,6.17-1.88,3.12-7.95,2.64-8-4.29,0-2.31,0-5.88,2.16-8.61A37.38,37.38,0,0,0,59.33,54.7c6.88-6.45,17-2.72,19.15,6.22.41,1.73,1.43,5.42,2.61,9.25,3.66-1.13,8.75-1.58,12.09,2.74,3.8,4.92,3.82,14.37-3,20h22.59c-8.31-5.34-12.52-15.54-13.33-27.14-.5-7.23,2.54-17,7.59-16,3.32.65,3,4.5,4,10.64,1.46,9,8.45,14.47,13.41,15.25,6.58,1,9.23.19,15.41,1.29A11.48,11.48,0,0,1,149.59,89a40.94,40.94,0,0,0,15-6.74c2.11-1.49,5.88-4.57,7-9C172.45,69.85,170.51,65.58,167.15,64.42Zm-12.38,0c-5.49,3.82-4,7.15-7.76,8.7-8.21,3.4-12.91-5.33-10.61-11.95a11.5,11.5,0,0,1,9.82-8.13,9.91,9.91,0,0,1,10.2,5.39A4.55,4.55,0,0,1,154.77,64.46Zm12.59,9.61c-1.73,2.18-6.86-2.26-5.17-4.59,1.38-1.91,4.71-2,4.71-2C170.28,67.43,169.48,71.39,167.36,74.07Z"/></svg>