<svg xmlns="http://www.w3.org/2000/svg" width="221" height="26"><rect id="backgroundrect" width="100%" height="100%" x="0" y="0" fill="none" stroke="none"/><defs><style>.cls-1{fill:#fff;}.cls-2{fill:#9dff00;}</style></defs><title>guanmor logo</title><g class="currentLayer" style=""><title>Layer 1</title><g id="Modo_de_aislamiento" data-name="Modo de aislamiento" class=""><path class="cls-1" d="M55.550000495910645,11.026447753906254 a4.5600000000000005,4.5600000000000005 0 0 0 -3.68,1.5 a6.21,6.21 0 0 0 -1.27,4.15 a8.26,8.26 0 0 0 0.30000000000000004,2.31 a5.09,5.09 0 0 0 0.9,1.79 a4.1,4.1 0 0 0 1.48,1.1600000000000001 a4.85,4.85 0 0 0 2.08,0.42000000000000004 a12.71,12.71 0 0 0 1.28,-0.06000000000000001 a5.13,5.13 0 0 0 0.8600000000000001,-0.15000000000000002 v-5.6 h2.83 v7.49 a13,13 0 0 1 -2,0.5 a17.09,17.09 0 0 1 -3.22,0.27 a8.48,8.48 0 0 1 -3.08,-0.54 a6.39,6.39 0 0 1 -2.37,-1.58 a7.16,7.16 0 0 1 -1.52,-2.54 a10.26,10.26 0 0 1 -0.54,-3.46 a9.37,9.37 0 0 1 0.6000000000000001,-3.46 a7.5,7.5 0 0 1 1.6300000000000001,-2.55 a6.84,6.84 0 0 1 2.43,-1.59 a8.15,8.15 0 0 1 3,-0.54 a11.44,11.44 0 0 1 1.92,0.15000000000000002 a13.16,13.16 0 0 1 1.45,0.33000000000000007 a6,6 0 0 1 1,0.38000000000000006 l0.55,0.29000000000000004 l-0.8500000000000001,2.3200000000000003 a6.9,6.9 0 0 0 -1.6800000000000002,-0.6900000000000002 A7.74,7.74 0 0 0 55.550000495910645,11.026447753906254 z" id="svg_1"/><path class="cls-1" d="M69.64000049591064,24.79644775390625 a7.35,7.35 0 0 1 -2.75,-0.46 a5.05,5.05 0 0 1 -1.9,-1.29 a5.26,5.26 0 0 1 -1.11,-2 a8.07,8.07 0 0 1 -0.36000000000000004,-2.47 V8.886447753906253 h2.8600000000000003 v9.47 a6.1,6.1 0 0 0 0.24000000000000002,1.81 a3.18,3.18 0 0 0 0.6700000000000002,1.23 a2.7,2.7 0 0 0 1,0.7000000000000001 a3.7600000000000002,3.7600000000000002 0 0 0 1.34,0.22000000000000003 a3.85,3.85 0 0 0 1.35,-0.22000000000000003 a2.67,2.67 0 0 0 1,-0.7000000000000001 a3.15,3.15 0 0 0 0.6700000000000002,-1.23 a6.07,6.07 0 0 0 0.24000000000000002,-1.81 V8.886447753906253 H75.83000049591064 v9.74 a7.86,7.86 0 0 1 -0.37000000000000005,2.47 a5.4,5.4 0 0 1 -1.12,2 a5,5 0 0 1 -1.92,1.29 A7.52,7.52 0 0 1 69.64000049591064,24.79644775390625 z" id="svg_2"/><path class="cls-1" d="M89.62000049591065,24.476447753906257 q-0.31000000000000005,-0.92 -0.6500000000000001,-1.82 T88.31000049591064,20.79644775390625 H81.72000049591064 q-0.32000000000000006,0.9400000000000001 -0.6400000000000001,1.86 l-0.6400000000000001,1.81 H77.49000049591065 q0.8800000000000001,-2.5 1.6600000000000001,-4.61 t1.54,-4 q0.7500000000000001,-1.8900000000000001 1.49,-3.6 t1.53,-3.37 h2.71 q0.79,1.6700000000000002 1.53,3.38 t1.5,3.6 q0.7500000000000001,1.8900000000000001 1.55,4 t1.6800000000000002,4.61 zm-4.6,-12.58 Q84.50000049591064,13.096447753906247 83.83000049591064,14.79644775390625 t-1.3800000000000001,3.71 h5.13 q-0.7200000000000001,-2 -1.4,-3.73 T85.01000049591065,11.90644775390625 z" id="svg_3"/><path class="cls-1" d="M105.14000049591064,24.476447753906257 q-0.7600000000000001,-1.28 -1.71,-2.7600000000000002 t-2,-3 q-1,-1.5 -2.06,-2.9 t-2,-2.5300000000000002 V24.476447753906257 H94.63000049591065 V8.886447753906253 h2.3200000000000003 q0.9,0.9400000000000001 1.9300000000000002,2.24 T100.97000049591064,13.79644775390625 q1,1.4 2,2.8 t1.7400000000000002,2.62 V8.886447753906253 h2.81 V24.476447753906257 z" id="svg_4"/><path class="cls-1" d="M114.69000049591064,8.886447753906253 q0.5,0.8600000000000001 1.1,2.09 t1.24,2.6 q0.6300000000000001,1.36 1.25,2.77 l1.1400000000000001,2.6 l1.12,-2.6 q0.6100000000000001,-1.4100000000000001 1.24,-2.77 t1.24,-2.6 q0.6100000000000001,-1.24 1.1,-2.09 h2.55 q0.21000000000000002,1.71 0.39000000000000007,3.63 t0.33000000000000007,3.94 q0.15000000000000002,2 0.27,4 t0.22000000000000003,4 h-2.79 q-0.09000000000000002,-2.72 -0.22000000000000003,-5.6 t-0.38000000000000006,-5.58 l-0.5800000000000001,1.24 L123.23000049591064,16.096447753906247 L122.42000049591064,17.79644775390625 l-0.7600000000000001,1.7400000000000002 l-0.6900000000000002,1.58 l-0.54,1.25 h-2.11 l-0.54,-1.26 q-0.31000000000000005,-0.7400000000000001 -0.6900000000000002,-1.59 L116.32000049591065,17.79644775390625 q-0.39000000000000007,-0.9 -0.78,-1.73 l-0.7200000000000001,-1.56 q-0.3400000000000001,-0.7300000000000001 -0.5800000000000001,-1.23 q-0.25,2.7 -0.38000000000000006,5.58 t-0.22000000000000003,5.6 h-2.79 q0.09000000000000002,-1.94 0.22000000000000003,-4 t0.27,-4.11 q0.15000000000000002,-2 0.33000000000000007,-3.95 t0.39000000000000007,-3.5300000000000002 z" id="svg_5"/><path class="cls-2" d="M145.66000049591065,16.676447753906245 a9.68,9.68 0 0 1 -0.6000000000000001,3.5300000000000002 A7.3100000000000005,7.3100000000000005 0 0 1 143.44000049591065,22.79644775390625 a6.68,6.68 0 0 1 -2.4,1.54 a8.23,8.23 0 0 1 -2.92,0.52 A8.32,8.32 0 0 1 135.23000049591064,24.29644775390625 A6.65,6.65 0 0 1 132.78000049591066,22.79644775390625 a7.42,7.42 0 0 1 -1.6300000000000001,-2.55 a10.54,10.54 0 0 1 0,-7.05 a7.4,7.4 0 0 1 1.6500000000000001,-2.55 A6.84,6.84 0 0 1 135.23000049591064,9.04644775390625 a8.41,8.41 0 0 1 5.8,0 a6.63,6.63 0 0 1 2.4,1.55 a7.6,7.6 0 0 1 1.6300000000000001,2.55 A9.44,9.44 0 0 1 145.66000049591065,16.676447753906245 z" id="svg_6"/><path class="cls-1" d="M153.06000049591066,8.736447753906248 A9,9 0 0 1 158.23000049591064,9.966447753906252 a4.66,4.66 0 0 1 -1.34,8.08 q0.43000000000000005,0.52 1,1.26 t1.1,1.61 q0.56,0.8700000000000001 1.08,1.78 t0.92,1.79 h-3.17 q-0.43000000000000005,-0.81 -0.92,-1.6300000000000001 t-1,-1.6 q-0.51,-0.78 -1,-1.46 t-0.92,-1.23 l-0.54,0 h-1.8 v5.890000000000001 h-2.83 V9.116447753906243 a15.15,15.15 0 0 1 2.2,-0.30000000000000004 Q152.14000049591064,8.736447753906248 153.06000049591066,8.736447753906248 zm0.2,2.45 c-0.6000000000000001,0 -1.1600000000000001,0 -1.6600000000000001,0.07 v5 h1.24 a13,13 0 0 0 1.82,-0.11000000000000001 a3.83,3.83 0 0 0 1.32,-0.4 a2,2 0 0 0 0.8,-0.79 a2.6100000000000003,2.6100000000000003 0 0 0 0.27,-1.26 a2.51,2.51 0 0 0 -0.27,-1.21 a2,2 0 0 0 -0.78,-0.79 a3.6500000000000004,3.6500000000000004 0 0 0 -1.2,-0.42000000000000004 A8.73,8.73 0 0 0 153.23000049591064,11.18644775390625 z" id="svg_7"/><path class="cls-1" d="M167.59000049591066,23.79644775390625 c-0.07,-0.16000000000000003 -0.16000000000000003,-0.38000000000000006 -0.28,-0.6500000000000001 l-0.41000000000000003,-0.8800000000000001 l-0.46,-1 l-0.45,-0.9500000000000001 l-0.39000000000000007,-0.78 l-0.25,-0.47000000000000003 q-0.13,1.23 -0.2,2.67 t-0.13,3 h-0.6600000000000001 q0.09000000000000002,-1.86 0.2,-3.56 t0.28,-3.26 h0.5900000000000001 q0.30000000000000004,0.49000000000000005 0.6300000000000001,1.1400000000000001 t0.6700000000000002,1.34 l0.6400000000000001,1.37 q0.31000000000000005,0.6800000000000002 0.55,1.22 l0.55,-1.22 l0.6400000000000001,-1.37 q0.33000000000000007,-0.6900000000000002 0.6700000000000002,-1.34 t0.6300000000000001,-1.1400000000000001 h0.56 q0.17,1.56 0.28,3.26 t0.2,3.56 h-0.6800000000000002 q-0.06000000000000001,-1.58 -0.13,-3 t-0.2,-2.67 l-0.25,0.47000000000000003 l-0.38000000000000006,0.78 l-0.45,0.9500000000000001 l-0.46,1 l-0.41000000000000003,0.8800000000000001 c-0.12000000000000001,0.27 -0.21000000000000002,0.49000000000000005 -0.28,0.6500000000000001 z" id="svg_8"/><path class="cls-1" d="M175.00000049591065,24.79644775390625 V18.006447753906244 h3.94 v0.5800000000000001 h-3.27 v2.37 h2.91 v0.5700000000000001 h-2.91 v2.72 H179.23000049591064 V24.79644775390625 z" id="svg_9"/><path class="cls-1" d="M187.08000049591064,24.79644775390625 q-0.19000000000000003,-0.3400000000000001 -0.48000000000000004,-0.81 t-0.6400000000000001,-1 L185.23000049591064,21.956447753906247 l-0.7600000000000001,-1.09 c-0.25,-0.35000000000000003 -0.5,-0.6800000000000002 -0.7400000000000001,-1 l-0.6400000000000001,-0.8 V24.79644775390625 h-0.6600000000000001 V18.006447753906244 h0.53 q0.5,0.56 1.08,1.29 t1.13,1.5 q0.55,0.7600000000000001 1,1.49 t0.78,1.27 V18.006447753906244 h0.6600000000000001 V24.79644775390625 z" id="svg_10"/><path class="cls-1" d="M193.84000049591066,24.976447753906257 a2.9,2.9 0 0 1 -1.1600000000000001,-0.21000000000000002 a2,2 0 0 1 -0.77,-0.5700000000000001 a2.2800000000000002,2.2800000000000002 0 0 1 -0.43000000000000005,-0.8500000000000001 a4,4 0 0 1 -0.13,-1 V18.006447753906244 h0.6700000000000002 v4.2 a3.17,3.17 0 0 0 0.13,1 a1.87,1.87 0 0 0 0.37000000000000005,0.6700000000000002 a1.4300000000000002,1.4300000000000002 0 0 0 0.5700000000000001,0.39000000000000007 a2.25,2.25 0 0 0 1.5,0 a1.4300000000000002,1.4300000000000002 0 0 0 0.5700000000000001,-0.39000000000000007 a1.84,1.84 0 0 0 0.37000000000000005,-0.6700000000000002 a3.14,3.14 0 0 0 0.13,-1 v-4.2 h0.6700000000000002 V22.29644775390625 a4,4 0 0 1 -0.13,1 a2.2800000000000002,2.2800000000000002 0 0 1 -0.43000000000000005,0.8500000000000001 a2,2 0 0 1 -0.77,0.5700000000000001 A2.91,2.91 0 0 1 193.84000049591066,24.976447753906257 z" id="svg_11"/><path class="cls-1" d="M201.67000049591064,24.886447753906253 h-0.39000000000000007 l-0.45,0 l-0.44000000000000006,-0.06000000000000001 l-0.35000000000000003,-0.07 V18.136447753906253 l0.39000000000000007,-0.08000000000000002 l0.45,-0.06000000000000001 l0.45,0 h0.41000000000000003 a6,6 0 0 1 1,0.09000000000000002 a2.8,2.8 0 0 1 0.8700000000000001,0.29000000000000004 a1.6500000000000001,1.6500000000000001 0 0 1 0.6000000000000001,0.54 a1.51,1.51 0 0 1 0.22000000000000003,0.8400000000000001 a1.56,1.56 0 0 1 -0.28,0.9400000000000001 a1.42,1.42 0 0 1 -0.7500000000000001,0.54 a2.31,2.31 0 0 1 0.54,0.2 a1.61,1.61 0 0 1 0.43000000000000005,0.33000000000000007 a1.3900000000000001,1.3900000000000001 0 0 1 0.29000000000000004,0.49000000000000005 a2.06,2.06 0 0 1 0.1,0.6900000000000002 a1.6600000000000001,1.6600000000000001 0 0 1 -0.77,1.47 A4.38,4.38 0 0 1 201.67000049591064,24.886447753906253 zm-1,-3.91 h1.3 a4.18,4.18 0 0 0 0.6900000000000002,-0.05000000000000001 a1.6400000000000001,1.6400000000000001 0 0 0 0.5700000000000001,-0.2 a1,1 0 0 0 0.38000000000000006,-0.38000000000000006 a1.22,1.22 0 0 0 0.14,-0.6100000000000001 a1,1 0 0 0 -0.15000000000000002,-0.56 A1.12,1.12 0 0 0 203.23000049591064,18.79644775390625 a2.08,2.08 0 0 0 -0.6400000000000001,-0.21000000000000002 a5,5 0 0 0 -0.8300000000000001,-0.06000000000000001 l-0.6200000000000001,0 l-0.42000000000000004,0 zm0,0.5700000000000001 v2.7 l0.44000000000000006,0 l0.6000000000000001,0 a6.33,6.33 0 0 0 0.8800000000000001,-0.06000000000000001 a2.48,2.48 0 0 0 0.7500000000000001,-0.22000000000000003 a1.35,1.35 0 0 0 0.52,-0.43000000000000005 a1.2,1.2 0 0 0 0.2,-0.7100000000000001 a1.4,1.4 0 0 0 -0.14,-0.6600000000000001 a1,1 0 0 0 -0.39000000000000007,-0.42000000000000004 a1.75,1.75 0 0 0 -0.6200000000000001,-0.21000000000000002 a5.14,5.14 0 0 0 -0.8200000000000001,-0.06000000000000001 z" id="svg_12"/><path class="cls-1" d="M212.80000049591064,24.79644775390625 q-0.19000000000000003,-0.5 -0.36000000000000004,-1 l-0.31000000000000005,-0.9 h-3.33 q-0.17,0.44000000000000006 -0.33000000000000007,0.91 l-0.35000000000000003,1 h-0.7000000000000001 q0.39000000000000007,-1.06 0.7300000000000001,-2 t0.6800000000000002,-1.7400000000000002 q0.33000000000000007,-0.8200000000000001 0.6600000000000001,-1.58 t0.6900000000000002,-1.52 h0.5900000000000001 q0.36000000000000004,0.7600000000000001 0.6900000000000002,1.52 t0.6600000000000001,1.58 q0.33000000000000007,0.8200000000000001 0.6800000000000002,1.7400000000000002 t0.7500000000000001,2 zM210.46000049591063,18.79644775390625 q-0.37000000000000005,0.8500000000000001 -0.7200000000000001,1.7200000000000002 t-0.7300000000000001,1.8900000000000001 h2.91 q-0.38000000000000006,-1 -0.7400000000000001,-1.8900000000000001 T210.46000049591063,18.79644775390625 z" id="svg_13"/><path class="cls-1" d="M221.03000049591066,20.056447753906255 a1.73,1.73 0 0 1 -0.4,1.21 a2.3,2.3 0 0 1 -1.06,0.6400000000000001 l0.41000000000000003,0.53 q0.25,0.33000000000000007 0.52,0.7300000000000001 t0.52,0.8300000000000001 a8.63,8.63 0 0 1 0.43000000000000005,0.8300000000000001 h-0.7200000000000001 q-0.21000000000000002,-0.39000000000000007 -0.45,-0.79 t-0.49000000000000005,-0.7600000000000001 c-0.17,-0.25 -0.33000000000000007,-0.47000000000000003 -0.49000000000000005,-0.6800000000000002 l-0.41000000000000003,-0.55 l-0.6300000000000001,0 h-1.1 V24.79644775390625 h-0.6700000000000002 V18.136447753906253 a4.78,4.78 0 0 1 0.8300000000000001,-0.14 q0.48000000000000004,0 0.8800000000000001,0 a3.5300000000000002,3.5300000000000002 0 0 1 2.12,0.53 A1.84,1.84 0 0 1 221.03000049591066,20.056447753906255 zM218.23000049591064,18.526447753906254 l-0.6500000000000001,0 l-0.47000000000000003,0 v2.9 h0.92 a8.28,8.28 0 0 0 0.8800000000000001,0 a2.09,2.09 0 0 0 0.7200000000000001,-0.2 a1.18,1.18 0 0 0 0.48000000000000004,-0.44000000000000006 a1.47,1.47 0 0 0 0.18000000000000002,-0.78 a1.44,1.44 0 0 0 -0.18000000000000002,-0.7500000000000001 a1.35,1.35 0 0 0 -0.46,-0.47000000000000003 a1.8900000000000001,1.8900000000000001 0 0 0 -0.6500000000000001,-0.24000000000000002 A4.52,4.52 0 0 0 218.23000049591064,18.526447753906254 z" id="svg_14"/><path class="cls-1" d="M8.910000495910644,24.916447753906255 c-1.82,0.92 -3.3200000000000003,0.91 -4,0 c-0.8500000000000001,-1.17 0.14,-3.38 2.33,-4.6 c1.79,-1 3,-0.77 3.6,-0.15000000000000002 C12.070000495910644,21.486447753906248 11.130000495910643,23.79644775390625 8.910000495910644,24.916447753906255 z" id="svg_15"/><path class="cls-1" d="M37.96000049591064,15.076447753906251 a3.18,3.18 0 0 1 -0.5,-0.22000000000000003 c-0.8700000000000001,-0.35000000000000003 -1.47,-0.6600000000000001 -1.53,-1.49 c-0.08000000000000002,-1.15 0.6700000000000002,-1.73 0.37000000000000005,-2.75 a9.69,9.69 0 0 0 -9.74,-5.73 a1.6400000000000001,1.6400000000000001 0 0 1 -0.46,1.27 a5.63,5.63 0 0 0 -1.71,2.17 c-0.6600000000000001,1.1 -2.8,0.93 -2.81,-1.51 a4.640000000000001,4.640000000000001 0 0 1 0.7600000000000001,-3 A13.16,13.16 0 0 0 4.959106441049244e-7,11.646447753906244 A4,4 0 0 1 6.740000495910644,13.79644775390625 c0.15000000000000002,0.6100000000000001 0.5,1.9100000000000001 0.92,3.26 a3.6900000000000004,3.6900000000000004 0 0 1 4.26,1 a5.25,5.25 0 0 1 -1.07,7 h8 c-2.92,-1.8800000000000001 -4.41,-5.47 -4.69,-9.55 c-0.18000000000000002,-2.55 0.8900000000000001,-6 2.67,-5.65 c1.17,0.23 1.05,1.59 1.4,3.75 a6.44,6.44 0 0 0 4.72,5.37 c2.3200000000000003,0.36000000000000004 3.25,0.07 5.43,0.45 a4,4 0 0 1 3.45,4.26 a14.41,14.41 0 0 0 5.3,-2.37 a6,6 0 0 0 2.46,-3.18 A2.72,2.72 0 0 0 37.96000049591064,15.076447753906251 zm-4.36,0 c-1.9300000000000002,1.34 -1.4100000000000001,2.52 -2.73,3.06 c-2.89,1.2 -4.54,-1.8800000000000001 -3.73,-4.21 a4,4 0 0 1 3.46,-2.8600000000000003 A3.49,3.49 0 0 1 34.230000495910645,12.976447753906257 A1.6,1.6 0 0 1 33.60000049591064,15.086447753906256 zm4.43,3.38 c-0.6100000000000001,0.77 -2.42,-0.8 -1.82,-1.62 a2.44,2.44 0 0 1 1.6600000000000001,-0.7200000000000001 C39.06000049591064,16.12644775390625 38.78000049591064,17.526447753906254 38.03000049591064,18.46644775390625 z" id="svg_16"/></g></g></svg>