<svg xmlns="http://www.w3.org/2000/svg" viewBox="0 0 236.99 173.99"><defs><style>.cls-1{fill:#fff;}.cls-2{fill:#9dff00;}</style></defs><title>guanmor logo</title><g id="Modo_de_aislamiento" data-name="Modo de aislamiento"><path class="cls-1" d="M63.32,85.23a4.56,4.56,0,0,0-3.68,1.5,6.21,6.21,0,0,0-1.27,4.15,8.26,8.26,0,0,0,.3,2.31,5.09,5.09,0,0,0,.9,1.79,4.1,4.1,0,0,0,1.48,1.16,4.85,4.85,0,0,0,2.08.42,12.71,12.71,0,0,0,1.28-.06,5.13,5.13,0,0,0,.86-.15v-5.6h2.83v7.49a13,13,0,0,1-2,.5,17.09,17.09,0,0,1-3.22.27,8.48,8.48,0,0,1-3.08-.54,6.39,6.39,0,0,1-2.37-1.58,7.16,7.16,0,0,1-1.52-2.54,10.26,10.26,0,0,1-.54-3.46,9.37,9.37,0,0,1,.6-3.46,7.5,7.5,0,0,1,1.63-2.55,6.84,6.84,0,0,1,2.43-1.59,8.15,8.15,0,0,1,3-.54,11.44,11.44,0,0,1,1.92.15,13.16,13.16,0,0,1,1.45.33,6,6,0,0,1,1,.38l.55.29-.85,2.32a6.9,6.9,0,0,0-1.68-.69A7.74,7.74,0,0,0,63.32,85.23Z"/><path class="cls-1" d="M77.41,99a7.35,7.35,0,0,1-2.75-.46,5.05,5.05,0,0,1-1.9-1.29,5.26,5.26,0,0,1-1.11-2,8.07,8.07,0,0,1-.36-2.47V83.09h2.86v9.47a6.1,6.1,0,0,0,.24,1.81,3.18,3.18,0,0,0,.67,1.23,2.7,2.7,0,0,0,1,.7,3.76,3.76,0,0,0,1.34.22,3.85,3.85,0,0,0,1.35-.22,2.67,2.67,0,0,0,1-.7,3.15,3.15,0,0,0,.67-1.23,6.07,6.07,0,0,0,.24-1.81V83.09H83.6v9.74a7.86,7.86,0,0,1-.37,2.47,5.4,5.4,0,0,1-1.12,2,5,5,0,0,1-1.92,1.29A7.52,7.52,0,0,1,77.41,99Z"/><path class="cls-1" d="M97.39,98.68q-.31-.92-.65-1.82T96.08,95H89.49q-.32.94-.64,1.86l-.64,1.81H85.26q.88-2.5,1.66-4.61t1.54-4q.75-1.89,1.49-3.6t1.53-3.37h2.71q.79,1.67,1.53,3.38t1.5,3.6q.75,1.89,1.55,4t1.68,4.61Zm-4.6-12.58Q92.27,87.3,91.6,89t-1.38,3.71h5.13q-.72-2-1.4-3.73T92.78,86.11Z"/><path class="cls-1" d="M112.91,98.68q-.76-1.28-1.71-2.76t-2-3q-1-1.5-2.06-2.9t-2-2.53V98.68H102.4V83.09h2.32q.9.94,1.93,2.24T108.74,88q1,1.4,2,2.8t1.74,2.62V83.09h2.81V98.68Z"/><path class="cls-1" d="M122.46,83.09q.5.86,1.1,2.09t1.24,2.6q.63,1.36,1.25,2.77l1.14,2.6,1.12-2.6q.61-1.41,1.24-2.77t1.24-2.6q.61-1.24,1.1-2.09h2.55q.21,1.71.39,3.63t.33,3.94q.15,2,.27,4t.22,4h-2.79q-.09-2.72-.22-5.6t-.38-5.58l-.58,1.24L131,90.3,130.19,92l-.76,1.74-.69,1.58-.54,1.25h-2.11l-.54-1.26q-.31-.74-.69-1.59L124.09,92q-.39-.9-.78-1.73l-.72-1.56q-.34-.73-.58-1.23-.25,2.7-.38,5.58t-.22,5.6h-2.79q.09-1.94.22-4t.27-4.11q.15-2,.33-3.95t.39-3.53Z"/><path class="cls-2" d="M153.43,90.88a9.68,9.68,0,0,1-.6,3.53A7.31,7.31,0,0,1,151.21,97a6.68,6.68,0,0,1-2.4,1.54,8.23,8.23,0,0,1-2.92.52A8.32,8.32,0,0,1,143,98.5,6.65,6.65,0,0,1,140.55,97a7.42,7.42,0,0,1-1.63-2.55,10.54,10.54,0,0,1,0-7.05,7.4,7.4,0,0,1,1.65-2.55A6.84,6.84,0,0,1,143,83.25a8.41,8.41,0,0,1,5.8,0,6.63,6.63,0,0,1,2.4,1.55,7.6,7.6,0,0,1,1.63,2.55A9.44,9.44,0,0,1,153.43,90.88Z"/><path class="cls-1" d="M160.83,82.94A9,9,0,0,1,166,84.17a4.66,4.66,0,0,1-1.34,8.08q.43.52,1,1.26t1.1,1.61q.56.87,1.08,1.78t.92,1.79h-3.17q-.43-.81-.92-1.63t-1-1.6q-.51-.78-1-1.46t-.92-1.23l-.54,0h-1.8v5.89h-2.83V83.32a15.15,15.15,0,0,1,2.2-.3Q159.91,82.94,160.83,82.94Zm.2,2.45c-.6,0-1.16,0-1.66.07v5h1.24a13,13,0,0,0,1.82-.11,3.83,3.83,0,0,0,1.32-.4,2,2,0,0,0,.8-.79,2.61,2.61,0,0,0,.27-1.26,2.51,2.51,0,0,0-.27-1.21,2,2,0,0,0-.78-.79,3.65,3.65,0,0,0-1.2-.42A8.73,8.73,0,0,0,161,85.39Z"/><path class="cls-1" d="M175.36,98c-.07-.16-.16-.38-.28-.65l-.41-.88-.46-1-.45-.95-.39-.78-.25-.47q-.13,1.23-.2,2.67t-.13,3h-.66q.09-1.86.2-3.56t.28-3.26h.59q.3.49.63,1.14t.67,1.34l.64,1.37q.31.68.55,1.22l.55-1.22.64-1.37q.33-.69.67-1.34t.63-1.14h.56q.17,1.56.28,3.26t.2,3.56h-.68q-.06-1.58-.13-3t-.2-2.67l-.25.47-.38.78-.45.95-.46,1-.41.88c-.12.27-.21.49-.28.65Z"/><path class="cls-1" d="M182.77,99V92.21h3.94v.58h-3.27v2.37h2.91v.57h-2.91v2.72H187V99Z"/><path class="cls-1" d="M194.85,99q-.19-.34-.48-.81t-.64-1L193,96.16l-.76-1.09c-.25-.35-.5-.68-.74-1l-.64-.8V99h-.66V92.21h.53q.5.56,1.08,1.29t1.13,1.5q.55.76,1,1.49t.78,1.27V92.21h.66V99Z"/><path class="cls-1" d="M201.61,99.18a2.9,2.9,0,0,1-1.16-.21,2,2,0,0,1-.77-.57,2.28,2.28,0,0,1-.43-.85,4,4,0,0,1-.13-1V92.21h.67v4.2a3.17,3.17,0,0,0,.13,1,1.87,1.87,0,0,0,.37.67,1.43,1.43,0,0,0,.57.39,2.25,2.25,0,0,0,1.5,0,1.43,1.43,0,0,0,.57-.39,1.84,1.84,0,0,0,.37-.67,3.14,3.14,0,0,0,.13-1v-4.2h.67V96.5a4,4,0,0,1-.13,1,2.28,2.28,0,0,1-.43.85,2,2,0,0,1-.77.57A2.91,2.91,0,0,1,201.61,99.18Z"/><path class="cls-1" d="M209.44,99.09h-.39l-.45,0-.44-.06-.35-.07V92.34l.39-.08.45-.06.45,0h.41a6,6,0,0,1,1,.09,2.8,2.8,0,0,1,.87.29,1.65,1.65,0,0,1,.6.54,1.51,1.51,0,0,1,.22.84,1.56,1.56,0,0,1-.28.94,1.42,1.42,0,0,1-.75.54,2.31,2.31,0,0,1,.54.2,1.61,1.61,0,0,1,.43.33,1.39,1.39,0,0,1,.29.49,2.06,2.06,0,0,1,.1.69,1.66,1.66,0,0,1-.77,1.47A4.38,4.38,0,0,1,209.44,99.09Zm-1-3.91h1.3a4.18,4.18,0,0,0,.69-.05,1.64,1.64,0,0,0,.57-.2,1,1,0,0,0,.38-.38,1.22,1.22,0,0,0,.14-.61,1,1,0,0,0-.15-.56A1.12,1.12,0,0,0,211,93a2.08,2.08,0,0,0-.64-.21,5,5,0,0,0-.83-.06l-.62,0-.42,0Zm0,.57v2.7l.44,0,.6,0a6.33,6.33,0,0,0,.88-.06,2.48,2.48,0,0,0,.75-.22,1.35,1.35,0,0,0,.52-.43,1.2,1.2,0,0,0,.2-.71,1.4,1.4,0,0,0-.14-.66,1,1,0,0,0-.39-.42,1.75,1.75,0,0,0-.62-.21,5.14,5.14,0,0,0-.82-.06Z"/><path class="cls-1" d="M220.57,99q-.19-.5-.36-1l-.31-.9h-3.33q-.17.44-.33.91l-.35,1h-.7q.39-1.06.73-2t.68-1.74q.33-.82.66-1.58t.69-1.52h.59q.36.76.69,1.52t.66,1.58q.33.82.68,1.74t.75,2ZM218.23,93q-.37.85-.72,1.72t-.73,1.89h2.91q-.38-1-.74-1.89T218.23,93Z"/><path class="cls-1" d="M228.8,94.26a1.73,1.73,0,0,1-.4,1.21,2.3,2.3,0,0,1-1.06.64l.41.53q.25.33.52.73t.52.83a8.63,8.63,0,0,1,.43.83h-.72q-.21-.39-.45-.79t-.49-.76c-.17-.25-.33-.47-.49-.68l-.41-.55-.63,0h-1.1V99h-.67V92.34a4.78,4.78,0,0,1,.83-.14q.48,0,.88,0a3.53,3.53,0,0,1,2.12.53A1.84,1.84,0,0,1,228.8,94.26ZM226,92.73l-.65,0-.47,0v2.9h.92a8.28,8.28,0,0,0,.88,0,2.09,2.09,0,0,0,.72-.2,1.18,1.18,0,0,0,.48-.44,1.47,1.47,0,0,0,.18-.78,1.44,1.44,0,0,0-.18-.75,1.35,1.35,0,0,0-.46-.47,1.89,1.89,0,0,0-.65-.24A4.52,4.52,0,0,0,226,92.73Z"/><path class="cls-1" d="M16.68,99.12c-1.82.92-3.32.91-4,0-.85-1.17.14-3.38,2.33-4.6,1.79-1,3-.77,3.6-.15C19.84,95.69,18.9,98,16.68,99.12Z"/><path class="cls-1" d="M45.73,89.28a3.18,3.18,0,0,1-.5-.22c-.87-.35-1.47-.66-1.53-1.49-.08-1.15.67-1.73.37-2.75a9.69,9.69,0,0,0-9.74-5.73,1.64,1.64,0,0,1-.46,1.27,5.63,5.63,0,0,0-1.71,2.17c-.66,1.1-2.8.93-2.81-1.51a4.64,4.64,0,0,1,.76-3A13.16,13.16,0,0,0,7.77,85.85,4,4,0,0,1,14.51,88c.15.61.5,1.91.92,3.26a3.69,3.69,0,0,1,4.26,1,5.25,5.25,0,0,1-1.07,7h8c-2.92-1.88-4.41-5.47-4.69-9.55-.18-2.55.89-6,2.67-5.65,1.17.23,1.05,1.59,1.4,3.75a6.44,6.44,0,0,0,4.72,5.37c2.32.36,3.25.07,5.43.45a4,4,0,0,1,3.45,4.26,14.41,14.41,0,0,0,5.3-2.37,6,6,0,0,0,2.46-3.18A2.72,2.72,0,0,0,45.73,89.28Zm-4.36,0c-1.93,1.34-1.41,2.52-2.73,3.06-2.89,1.2-4.54-1.88-3.73-4.21a4,4,0,0,1,3.46-2.86A3.49,3.49,0,0,1,42,87.18,1.6,1.6,0,0,1,41.37,89.29Zm4.43,3.38c-.61.77-2.42-.8-1.82-1.62a2.44,2.44,0,0,1,1.66-.72C46.83,90.33,46.55,91.73,45.8,92.67Z"/></g></svg>