<svg xmlns="http://www.w3.org/2000/svg" width="222" height="33" style=""><rect id="backgroundrect" width="100%" height="100%" x="0" y="0" fill="none" stroke="none"/><defs><style>.cls-1{fill:#fff;}.cls-2{fill:#47ddd5;}</style></defs><title>ILOVEMENU LOGO</title><g class="currentLayer" style=""><title>Layer 1</title><g id="Modo_de_aislamiento" data-name="Modo de aislamiento" class=""><path class="cls-1" d="M11.38999786376953,31.98017303466797 c-2.33,1.18 -4.25,1.17 -5.06,0.06000000000000001 c-1.1,-1.5 0.18000000000000002,-4.33 3,-5.890000000000001 c2.3,-1.28 3.87,-1 4.62,-0.2 C15.43999786376953,27.56017303466797 14.239997863769531,30.56017303466797 11.38999786376953,31.98017303466797 z" id="svg_1"/><path class="cls-1" d="M48.619997863769534,19.360173034667966 a3.79,3.79 0 0 1 -0.6300000000000001,-0.28 c-1.12,-0.45 -1.8900000000000001,-0.8500000000000001 -2,-1.9100000000000001 c-0.11000000000000001,-1.48 0.8600000000000001,-2.22 0.47000000000000003,-3.52 a12.43,12.43 0 0 0 -12.48,-7.34 a2.11,2.11 0 0 1 -0.5800000000000001,1.62 A7.17,7.17 0 0 0 31.23999786376953,10.720173034667965 c-0.8500000000000001,1.4 -3.59,1.19 -3.6,-1.94 a6,6 0 0 1 1,-3.89 a17,17 0 0 0 -11.870000000000001,-4.890000000000001 a16.79,16.79 0 0 0 -16.77,15 c3.1,-2.91 7.67,-1.23 8.64,2.81 c0.19000000000000003,0.78 0.6500000000000001,2.44 1.18,4.17 c1.6500000000000001,-0.51 4,-0.7100000000000001 5.45,1.24 a6.73,6.73 0 0 1 -1.37,9 H24.06999786376953 c-3.75,-2.4 -5.65,-7 -6,-12.24 c-0.23,-3.26 1.1400000000000001,-7.68 3.42,-7.24 c1.5,0.30000000000000004 1.35,2 1.8,4.8 c0.6600000000000001,4.06 3.81,6.54 6.05,6.88 c3,0.47000000000000003 4.17,0.09000000000000002 7,0.5800000000000001 a5.18,5.18 0 0 1 4.41,5.46 a18.48,18.48 0 0 0 6.79,-3 a7.63,7.63 0 0 0 3.15,-4.08 A3.47,3.47 0 0 0 48.619997863769534,19.360173034667966 zm-5.58,0 C40.55999786376953,21.100173034667975 41.23999786376953,22.56017303466797 39.53999786376953,23.300173034667964 c-3.7,1.54 -5.83,-2.4 -4.79,-5.39 a5.2,5.2 0 0 1 4.43,-3.67 a4.49,4.49 0 0 1 4.61,2.44 A2.05,2.05 0 0 1 43.03999786376953,19.37017303466797 zm5.68,4.34 c-0.78,1 -3.1,-1 -2.34,-2.07 a3.15,3.15 0 0 1 2.13,-0.92 C50.02999786376953,20.710173034667974 49.66999786376953,22.56017303466797 48.71999786376953,23.710173034667974 z" id="svg_2"/></g><g id="OBJECTS" class=""><path class="cls-1" d="M61.749997863769536,24.270173034667962 a0.37000000000000005,0.37000000000000005 0 0 1 -0.12000000000000001,-0.27 V9.560173034667969 a0.37000000000000005,0.37000000000000005 0 0 1 0.13,-0.29000000000000004 a0.41000000000000003,0.41000000000000003 0 0 1 0.28,-0.12000000000000001 H64.23999786376953 a0.38000000000000006,0.38000000000000006 0 0 1 0.28,0.12000000000000001 a0.4,0.4 0 0 1 0.12000000000000001,0.29000000000000004 V24.000173034667966 a0.4,0.4 0 0 1 -0.11000000000000001,0.27 a0.37000000000000005,0.37000000000000005 0 0 1 -0.29000000000000004,0.12000000000000001 H62.03999786376953 A0.4,0.4 0 0 1 61.749997863769536,24.270173034667962 z" id="svg_3"/><path class="cls-2" d="M144.00999786376954,23.430173034667973 V22.12017303466797 a0.39000000000000007,0.39000000000000007 0 0 0 -0.11000000000000001,-0.28 a0.42000000000000004,0.42000000000000004 0 0 0 -0.29000000000000004,-0.11000000000000001 h-7.5 a0.41000000000000003,0.41000000000000003 0 0 1 -0.29000000000000004,-0.13 a0.43000000000000005,0.43000000000000005 0 0 1 -0.13,-0.29000000000000004 V18.940173034667964 c0,-0.31000000000000005 0.17,-0.46 0.51,-0.46 h5.5600000000000005 a0.35000000000000003,0.35000000000000003 0 0 0 0.26,-0.1 a0.3400000000000001,0.3400000000000001 0 0 0 0.11000000000000001,-0.25 V16.250173034667966 a0.3400000000000001,0.3400000000000001 0 0 0 -0.11000000000000001,-0.25 a0.4,0.4 0 0 0 -0.26,-0.1 H136.23999786376953 c-0.38000000000000006,0 -0.5700000000000001,-0.13 -0.5700000000000001,-0.41000000000000003 V13.920173034667968 a0.38000000000000006,0.38000000000000006 0 0 0 -0.39000000000000007,-0.39000000000000007 h-1.85 a0.37000000000000005,0.37000000000000005 0 0 0 -0.28,0.11000000000000001 a0.35000000000000003,0.35000000000000003 0 0 0 -0.12000000000000001,0.28 v9 C136.83999786376953,23.050173034667964 140.49999786376952,23.220173034667965 144.00999786376954,23.430173034667973 z" id="svg_4"/><path class="cls-2" d="M133.44999786376954,11.800173034667964 h10.12 a0.36000000000000004,0.36000000000000004 0 0 0 0.29000000000000004,-0.13 a0.41000000000000003,0.41000000000000003 0 0 0 0.12000000000000001,-0.28 V9.560173034667969 a0.37000000000000005,0.37000000000000005 0 0 0 -0.12000000000000001,-0.27 a0.38000000000000006,0.38000000000000006 0 0 0 -0.29000000000000004,-0.12000000000000001 H133.44999786376954 a0.41000000000000003,0.41000000000000003 0 0 0 -0.28,0.11000000000000001 a0.36000000000000004,0.36000000000000004 0 0 0 -0.12000000000000001,0.28 v1.8800000000000001 a0.4,0.4 0 0 0 0.12000000000000001,0.29000000000000004 A0.38000000000000006,0.38000000000000006 0 0 0 133.44999786376954,11.800173034667964 z" id="svg_5"/><path class="cls-2" d="M115.23999786376953,17.820173034667974 a0.49000000000000005,0.49000000000000005 0 0 0 0,0.2 L116.51999786376953,22.56017303466797 q2.27,0 4.47,0.06000000000000001 l3.56,-13 a0.51,0.51 0 0 0 -0.05000000000000001,-0.35000000000000003 a0.27,0.27 0 0 0 -0.24000000000000002,-0.15000000000000002 h-2 a0.7300000000000001,0.7300000000000001 0 0 0 -0.32000000000000006,0.06000000000000001 a0.38000000000000006,0.38000000000000006 0 0 0 -0.16000000000000003,0.24000000000000002 c-0.29000000000000004,1 -0.7600000000000001,2.73 -1.4,5.09 s-1.13,4.16 -1.46,5.41 c-0.06000000000000001,0.24000000000000002 -0.11000000000000001,0.37000000000000005 -0.15000000000000002,0.37000000000000005 s-0.11000000000000001,-0.12000000000000001 -0.18000000000000002,-0.35000000000000003 l-0.52,-1.92 a0.8400000000000001,0.8400000000000001 0 0 0 -0.18000000000000002,-0.3400000000000001 a0.5700000000000001,0.5700000000000001 0 0 0 -0.43000000000000005,-0.12000000000000001 h-1.86 C115.38999786376954,17.56017303466797 115.23999786376953,17.640173034667967 115.23999786376953,17.820173034667974 z" id="svg_6"/><path class="cls-2" d="M93.23999786376953,22.70017303466797 c3.4,-0.09000000000000002 6.88,-0.15000000000000002 10.42,-0.18000000000000002 a5.72,5.72 0 0 0 0.6600000000000001,-0.7300000000000001 a7.42,7.42 0 0 0 1.35,-2.36 a7.91,7.91 0 0 0 0.46,-2.68 a7.78,7.78 0 0 0 -1.05,-3.94 a0.55,0.55 0 0 0 -0.52,-0.33000000000000007 A0.6800000000000002,0.6800000000000002 0 0 0 104.23999786376953,12.560173034667969 l-0.6300000000000001,0.43000000000000005 c-0.33000000000000007,0.24000000000000002 -0.56,0.39000000000000007 -0.6800000000000002,0.46 a0.6700000000000002,0.6700000000000002 0 0 0 -0.26,0.5 a1,1 0 0 0 0.11000000000000001,0.44000000000000006 a5,5 0 0 1 0.55,2.31 a5.11,5.11 0 0 1 -0.30000000000000004,1.7200000000000002 a4.69,4.69 0 0 1 -0.8800000000000001,1.53 a4.48,4.48 0 0 1 -1.7000000000000002,1.33 a5,5 0 0 1 -5.33,-0.7200000000000001 a4.82,4.82 0 0 1 -1.3,-1.73 a5.07,5.07 0 0 1 0.7200000000000001,-5.36 a4.45,4.45 0 0 1 1.5,-1.25 a5,5 0 0 1 1.8800000000000001,-0.56 q0.45,0 0.45,-0.45 v-1.9 a0.55,0.55 0 0 0 -0.14,-0.33000000000000007 a0.37000000000000005,0.37000000000000005 0 0 0 -0.29000000000000004,-0.13 h0 a7.67,7.67 0 0 0 -3,0.8 a7.54,7.54 0 0 0 -2.51,2 a7.75,7.75 0 0 0 -1.34,2.37 a8,8 0 0 0 0.27,6 A7.79,7.79 0 0 0 93.23999786376953,22.70017303466797 z" id="svg_7"/><path class="cls-2" d="M84.09999786376953,23.000173034667966 V22.06017303466797 a0.42000000000000004,0.42000000000000004 0 0 0 -0.13,-0.31000000000000005 a0.44000000000000006,0.44000000000000006 0 0 0 -0.33000000000000007,-0.13 H78.35999786376954 a0.39000000000000007,0.39000000000000007 0 0 1 -0.30000000000000004,-0.14 a0.47000000000000003,0.47000000000000003 0 0 1 -0.14,-0.32000000000000006 V9.560173034667969 a0.44000000000000006,0.44000000000000006 0 0 0 -0.13,-0.32000000000000006 a0.42000000000000004,0.42000000000000004 0 0 0 -0.32000000000000006,-0.14 H75.10999786376954 a0.47000000000000003,0.47000000000000003 0 0 0 -0.32000000000000006,0.14 a0.45,0.45 0 0 0 -0.14,0.32000000000000006 V23.470173034667965 Q79.23999786376953,23.20017303466797 84.09999786376953,23.000173034667966 z" id="svg_8"/><path class="cls-2" d="M113.52999786376954,11.500173034667966 a0.55,0.55 0 0 0 0.6100000000000001,0.43000000000000005 h1.77 c0.27,0 0.41000000000000003,-0.09000000000000002 0.41000000000000003,-0.28 a0.7200000000000001,0.7200000000000001 0 0 0 0,-0.17 q-0.11000000000000001,-0.47000000000000003 -0.30000000000000004,-1.1400000000000001 t-0.27,-1 c0,-0.19000000000000003 -0.2,-0.28 -0.48000000000000004,-0.28 h-2 a0.28,0.28 0 0 0 -0.31000000000000005,0.32000000000000006 a0.42000000000000004,0.42000000000000004 0 0 0 0,0.18000000000000002 z" id="svg_9"/><path class="cls-1" d="M163.14999786376953,9.320173034667974 a0.4,0.4 0 0 1 0.11000000000000001,0.30000000000000004 V24.130173034667962 a0.38000000000000006,0.38000000000000006 0 0 1 -0.37000000000000005,0.4 h-2.18 a0.38000000000000006,0.38000000000000006 0 0 1 -0.37000000000000005,-0.4 V15.420173034667968 c0,-0.13 0,-0.19000000000000003 -0.09000000000000002,-0.19000000000000003 s-0.11000000000000001,0 -0.2,0.15000000000000002 c-0.23,0.35000000000000003 -0.6200000000000001,0.9 -1.15,1.6500000000000001 l-1.18,1.6300000000000001 a1.8,1.8 0 0 1 -0.36000000000000004,0.37000000000000005 a1,1 0 0 1 -0.48000000000000004,0.09000000000000002 h-0.37000000000000005 a1.36,1.36 0 0 1 -0.54,-0.07 a1.07,1.07 0 0 1 -0.32000000000000006,-0.28 L153.23999786376953,15.400173034667972 c0,-0.13 -0.12000000000000001,-0.2 -0.19000000000000003,-0.2 s-0.09000000000000002,0.07 -0.09000000000000002,0.2 v2.73 a0.38000000000000006,0.38000000000000006 0 0 1 -0.11000000000000001,0.28 a0.33000000000000007,0.33000000000000007 0 0 1 -0.27,0.11000000000000001 H150.43999786376952 a0.39000000000000007,0.39000000000000007 0 0 1 -0.28,-0.12000000000000001 a0.37000000000000005,0.37000000000000005 0 0 1 -0.12000000000000001,-0.27 V9.620173034667971 a0.41000000000000003,0.41000000000000003 0 0 1 0.12000000000000001,-0.30000000000000004 a0.39000000000000007,0.39000000000000007 0 0 1 0.28,-0.12000000000000001 h2.2 a0.30000000000000004,0.30000000000000004 0 0 1 0.16000000000000003,0.08000000000000002 a0.45,0.45 0 0 1 0.15000000000000002,0.16000000000000003 l3.34,5.52 a0.44000000000000006,0.44000000000000006 0 0 0 0.12000000000000001,0.13 a0.37000000000000005,0.37000000000000005 0 0 0 0.25,0.09000000000000002 h0 a0.28,0.28 0 0 0 0.24000000000000002,-0.11000000000000001 a1.27,1.27 0 0 0 0.11000000000000001,-0.15000000000000002 l3.3200000000000003,-5.46 a1.4,1.4 0 0 1 0.13,-0.18000000000000002 a0.22000000000000003,0.22000000000000003 0 0 1 0.18000000000000002,-0.08000000000000002 h2.22 A0.3400000000000001,0.3400000000000001 0 0 1 163.14999786376953,9.320173034667974 z" id="svg_10"/><path class="cls-1" d="M171.64999786376953,11.740173034667976 a0.41000000000000003,0.41000000000000003 0 0 1 -0.12000000000000001,-0.30000000000000004 V9.560173034667969 a0.35000000000000003,0.35000000000000003 0 0 1 0.12000000000000001,-0.28 a0.38000000000000006,0.38000000000000006 0 0 1 0.28,-0.12000000000000001 h10.2 a0.42000000000000004,0.42000000000000004 0 0 1 0.30000000000000004,0.13 a0.37000000000000005,0.37000000000000005 0 0 1 0.12000000000000001,0.27 v1.8900000000000001 a0.42000000000000004,0.42000000000000004 0 0 1 -0.12000000000000001,0.29000000000000004 a0.38000000000000006,0.38000000000000006 0 0 1 -0.30000000000000004,0.13 h-10.2 A0.38000000000000006,0.38000000000000006 0 0 1 171.64999786376953,11.740173034667976 zm0,12.69 a0.37000000000000005,0.37000000000000005 0 0 1 -0.12000000000000001,-0.27 V13.990173034667976 a0.36000000000000004,0.36000000000000004 0 0 1 0.12000000000000001,-0.28 a0.37000000000000005,0.37000000000000005 0 0 1 0.28,-0.11000000000000001 h1.87 a0.38000000000000006,0.38000000000000006 0 0 1 0.39000000000000007,0.39000000000000007 V15.560173034667969 c0,0.28 0.19000000000000003,0.41000000000000003 0.5800000000000001,0.41000000000000003 h5.54 a0.4,0.4 0 0 1 0.26,0.1 a0.35000000000000003,0.35000000000000003 0 0 1 0.11000000000000001,0.26 v1.8900000000000001 a0.33000000000000007,0.33000000000000007 0 0 1 -0.11000000000000001,0.25 a0.35000000000000003,0.35000000000000003 0 0 1 -0.26,0.1 h-5.61 c-0.3400000000000001,0 -0.51,0.15000000000000002 -0.51,0.46 v2.4 a0.42000000000000004,0.42000000000000004 0 0 0 0.14,0.29000000000000004 a0.41000000000000003,0.41000000000000003 0 0 0 0.28,0.13 h7.57 a0.38000000000000006,0.38000000000000006 0 0 1 0.39000000000000007,0.39000000000000007 v1.9 a0.39000000000000007,0.39000000000000007 0 0 1 -0.39000000000000007,0.39000000000000007 H171.92999786376953 A0.38000000000000006,0.38000000000000006 0 0 1 171.64999786376953,24.430173034667973 z" id="svg_11"/><path class="cls-1" d="M199.50999786376954,24.56017303466797 l-0.18000000000000002,-0.22000000000000003 q-0.8500000000000001,-1.35 -2.8,-4.36 t-2.94,-4.59 c-0.09000000000000002,-0.11000000000000001 -0.14,-0.16000000000000003 -0.17,-0.16000000000000003 s-0.05000000000000001,0 -0.06000000000000001,0.09000000000000002 a0.7200000000000001,0.7200000000000001 0 0 0 0,0.13 l0,2.6 a0.36000000000000004,0.36000000000000004 0 0 1 -0.11000000000000001,0.27 a0.35000000000000003,0.35000000000000003 0 0 1 -0.28,0.12000000000000001 h-2.14 a0.39000000000000007,0.39000000000000007 0 0 1 -0.29000000000000004,-0.11000000000000001 a0.36000000000000004,0.36000000000000004 0 0 1 -0.12000000000000001,-0.28 V9.560173034667969 a0.41000000000000003,0.41000000000000003 0 0 1 0.41000000000000003,-0.41000000000000003 h2.16 a0.32000000000000006,0.32000000000000006 0 0 1 0.26,0.13 l5.33,8.86 c0.13,0.25 0.24000000000000002,0.38000000000000006 0.33000000000000007,0.38000000000000006 s0.11000000000000001,-0.13 0.11000000000000001,-0.38000000000000006 l0,-8.58 a0.4,0.4 0 0 1 0.12000000000000001,-0.29000000000000004 a0.37000000000000005,0.37000000000000005 0 0 1 0.27,-0.12000000000000001 h2.33 a0.41000000000000003,0.41000000000000003 0 0 1 0.30000000000000004,0.12000000000000001 a0.4,0.4 0 0 1 0.12000000000000001,0.29000000000000004 V24.110173034667966 a0.38000000000000006,0.38000000000000006 0 0 1 -0.12000000000000001,0.29000000000000004 a0.44000000000000006,0.44000000000000006 0 0 1 -0.30000000000000004,0.11000000000000001 h-2.24 z" id="svg_12"/><path class="cls-1" d="M213.15999786376952,23.98017303466797 a5.37,5.37 0 0 1 -2,-2 a5.3,5.3 0 0 1 -0.7400000000000001,-2.73 V15.010173034667972 a0.37000000000000005,0.37000000000000005 0 0 1 0.12000000000000001,-0.29000000000000004 a0.41000000000000003,0.41000000000000003 0 0 1 0.28,-0.11000000000000001 h2.06 a0.38000000000000006,0.38000000000000006 0 0 1 0.4,0.4 v4.26 a2.5300000000000002,2.5300000000000002 0 0 0 0.7500000000000001,1.86 a2.44,2.44 0 0 0 1.82,0.7600000000000001 a3.45,3.45 0 0 0 1.54,-0.35000000000000003 a3,3 0 0 0 1.12,-1 a2.24,2.24 0 0 0 0.42000000000000004,-1.31 V9.560173034667969 a0.38000000000000006,0.38000000000000006 0 0 1 0.12000000000000001,-0.28 a0.41000000000000003,0.41000000000000003 0 0 1 0.30000000000000004,-0.12000000000000001 h2 a0.41000000000000003,0.41000000000000003 0 0 1 0.30000000000000004,0.12000000000000001 a0.38000000000000006,0.38000000000000006 0 0 1 0.12000000000000001,0.28 v9.76 a5.12,5.12 0 0 1 -0.7600000000000001,2.74 a5.35,5.35 0 0 1 -2.11,2 a6.42,6.42 0 0 1 -3.07,0.7300000000000001 A5.29,5.29 0 0 1 213.15999786376952,23.98017303466797 zm-2.6,-12.28 a0.41000000000000003,0.41000000000000003 0 0 1 -0.12000000000000001,-0.28 V9.560173034667969 a0.37000000000000005,0.37000000000000005 0 0 1 0.12000000000000001,-0.29000000000000004 a0.41000000000000003,0.41000000000000003 0 0 1 0.28,-0.11000000000000001 h2.06 a0.38000000000000006,0.38000000000000006 0 0 1 0.4,0.4 v1.9100000000000001 a0.45,0.45 0 0 1 -0.11000000000000001,0.28 a0.37000000000000005,0.37000000000000005 0 0 1 -0.29000000000000004,0.12000000000000001 H210.83999786376953 A0.38000000000000006,0.38000000000000006 0 0 1 210.55999786376952,11.70017303466797 z" id="svg_13"/></g></g></svg>